<mxfile host="app.diagrams.net" modified="2023-11-09T03:47:40.011Z" agent="Mozilla/5.0 (Windows NT 10.0; Win64; x64) AppleWebKit/537.36 (KHTML, like Gecko) Chrome/119.0.0.0 Safari/537.36 Edg/119.0.0.0" version="22.1.0" etag="uRSpPShXwxRHRmX8IsQ7" type="github">
  <diagram name="第 1 页" id="PzMiTRR47Agb9VswAsaj">
    <mxGraphModel>
      <root>
        <mxCell id="0" />
        <mxCell id="1" parent="0" />
      </root>
    </mxGraphModel>
  </diagram>
</mxfile>
